<?xml version="1.0" encoding="UTF-8"?>
<svg xmlns="http://www.w3.org/2000/svg" viewBox="0 0 604 225" role="img" aria-label="Codeian">
  <defs>
    <linearGradient id="pixels" x1="58" y1="44" x2="590" y2="126" gradientUnits="userSpaceOnUse">
      <stop offset="0" stop-color="#f8fafc"/>
      <stop offset="0.62" stop-color="#ccfbf1"/>
      <stop offset="1" stop-color="#5eead4"/>
    </linearGradient>
    <filter id="block-shadow" x="-2%" y="-8%" width="104%" height="124%">
      <feDropShadow dx="0" dy="8" stdDeviation="0" flood-color="#000000" flood-opacity="0.38"/>
    </filter>
  </defs>
  <g shape-rendering="crispEdges">
    <path d="M61 44h10v10h-10zM73 44h10v10h-10zM85 44h10v10h-10zM97 44h10v10h-10zM109 44h10v10h-10zM61 56h10v10h-10zM61 68h10v10h-10zM61 80h10v10h-10zM61 92h10v10h-10zM61 104h10v10h-10zM61 116h10v10h-10zM73 116h10v10h-10zM85 116h10v10h-10zM97 116h10v10h-10zM109 116h10v10h-10zM139 44h10v10h-10zM151 44h10v10h-10zM163 44h10v10h-10zM175 44h10v10h-10zM187 44h10v10h-10zM139 56h10v10h-10zM187 56h10v10h-10zM139 68h10v10h-10zM187 68h10v10h-10zM139 80h10v10h-10zM187 80h10v10h-10zM139 92h10v10h-10zM187 92h10v10h-10zM139 104h10v10h-10zM187 104h10v10h-10zM139 116h10v10h-10zM151 116h10v10h-10zM163 116h10v10h-10zM175 116h10v10h-10zM187 116h10v10h-10zM217 44h10v10h-10zM229 44h10v10h-10zM241 44h10v10h-10zM253 44h10v10h-10zM217 56h10v10h-10zM265 56h10v10h-10zM217 68h10v10h-10zM265 68h10v10h-10zM217 80h10v10h-10zM265 80h10v10h-10zM217 92h10v10h-10zM265 92h10v10h-10zM217 104h10v10h-10zM265 104h10v10h-10zM217 116h10v10h-10zM229 116h10v10h-10zM241 116h10v10h-10zM253 116h10v10h-10zM295 44h10v10h-10zM307 44h10v10h-10zM319 44h10v10h-10zM331 44h10v10h-10zM343 44h10v10h-10zM295 56h10v10h-10zM295 68h10v10h-10zM307 68h10v10h-10zM319 68h10v10h-10zM331 68h10v10h-10zM295 80h10v10h-10zM295 92h10v10h-10zM295 104h10v10h-10zM295 116h10v10h-10zM307 116h10v10h-10zM319 116h10v10h-10zM331 116h10v10h-10zM343 116h10v10h-10zM373 44h10v10h-10zM385 44h10v10h-10zM397 44h10v10h-10zM409 44h10v10h-10zM421 44h10v10h-10zM397 56h10v10h-10zM397 68h10v10h-10zM397 80h10v10h-10zM397 92h10v10h-10zM397 104h10v10h-10zM373 116h10v10h-10zM385 116h10v10h-10zM397 116h10v10h-10zM409 116h10v10h-10zM421 116h10v10h-10zM463 44h10v10h-10zM475 44h10v10h-10zM487 44h10v10h-10zM451 56h10v10h-10zM499 56h10v10h-10zM451 68h10v10h-10zM499 68h10v10h-10zM451 80h10v10h-10zM463 80h10v10h-10zM475 80h10v10h-10zM487 80h10v10h-10zM499 80h10v10h-10zM451 92h10v10h-10zM499 92h10v10h-10zM451 104h10v10h-10zM499 104h10v10h-10zM451 116h10v10h-10zM499 116h10v10h-10zM529 44h10v10h-10zM577 44h10v10h-10zM529 56h10v10h-10zM541 56h10v10h-10zM577 56h10v10h-10zM529 68h10v10h-10zM553 68h10v10h-10zM577 68h10v10h-10zM529 80h10v10h-10zM565 80h10v10h-10zM577 80h10v10h-10zM529 92h10v10h-10zM577 92h10v10h-10zM529 104h10v10h-10zM577 104h10v10h-10zM529 116h10v10h-10zM577 116h10v10h-10z" fill="#334155" opacity="0.8" transform="translate(0 8)"/>
    <path d="M61 44h10v10h-10zM73 44h10v10h-10zM85 44h10v10h-10zM97 44h10v10h-10zM109 44h10v10h-10zM61 56h10v10h-10zM61 68h10v10h-10zM61 80h10v10h-10zM61 92h10v10h-10zM61 104h10v10h-10zM61 116h10v10h-10zM73 116h10v10h-10zM85 116h10v10h-10zM97 116h10v10h-10zM109 116h10v10h-10zM139 44h10v10h-10zM151 44h10v10h-10zM163 44h10v10h-10zM175 44h10v10h-10zM187 44h10v10h-10zM139 56h10v10h-10zM187 56h10v10h-10zM139 68h10v10h-10zM187 68h10v10h-10zM139 80h10v10h-10zM187 80h10v10h-10zM139 92h10v10h-10zM187 92h10v10h-10zM139 104h10v10h-10zM187 104h10v10h-10zM139 116h10v10h-10zM151 116h10v10h-10zM163 116h10v10h-10zM175 116h10v10h-10zM187 116h10v10h-10zM217 44h10v10h-10zM229 44h10v10h-10zM241 44h10v10h-10zM253 44h10v10h-10zM217 56h10v10h-10zM265 56h10v10h-10zM217 68h10v10h-10zM265 68h10v10h-10zM217 80h10v10h-10zM265 80h10v10h-10zM217 92h10v10h-10zM265 92h10v10h-10zM217 104h10v10h-10zM265 104h10v10h-10zM217 116h10v10h-10zM229 116h10v10h-10zM241 116h10v10h-10zM253 116h10v10h-10zM295 44h10v10h-10zM307 44h10v10h-10zM319 44h10v10h-10zM331 44h10v10h-10zM343 44h10v10h-10zM295 56h10v10h-10zM295 68h10v10h-10zM307 68h10v10h-10zM319 68h10v10h-10zM331 68h10v10h-10zM295 80h10v10h-10zM295 92h10v10h-10zM295 104h10v10h-10zM295 116h10v10h-10zM307 116h10v10h-10zM319 116h10v10h-10zM331 116h10v10h-10zM343 116h10v10h-10zM373 44h10v10h-10zM385 44h10v10h-10zM397 44h10v10h-10zM409 44h10v10h-10zM421 44h10v10h-10zM397 56h10v10h-10zM397 68h10v10h-10zM397 80h10v10h-10zM397 92h10v10h-10zM397 104h10v10h-10zM373 116h10v10h-10zM385 116h10v10h-10zM397 116h10v10h-10zM409 116h10v10h-10zM421 116h10v10h-10zM463 44h10v10h-10zM475 44h10v10h-10zM487 44h10v10h-10zM451 56h10v10h-10zM499 56h10v10h-10zM451 68h10v10h-10zM499 68h10v10h-10zM451 80h10v10h-10zM463 80h10v10h-10zM475 80h10v10h-10zM487 80h10v10h-10zM499 80h10v10h-10zM451 92h10v10h-10zM499 92h10v10h-10zM451 104h10v10h-10zM499 104h10v10h-10zM451 116h10v10h-10zM499 116h10v10h-10zM529 44h10v10h-10zM577 44h10v10h-10zM529 56h10v10h-10zM541 56h10v10h-10zM577 56h10v10h-10zM529 68h10v10h-10zM553 68h10v10h-10zM577 68h10v10h-10zM529 80h10v10h-10zM565 80h10v10h-10zM577 80h10v10h-10zM529 92h10v10h-10zM577 92h10v10h-10zM529 104h10v10h-10zM577 104h10v10h-10zM529 116h10v10h-10zM577 116h10v10h-10z" fill="url(#pixels)" filter="url(#block-shadow)"/>
    <rect x="61" y="146" width="392" height="8" fill="#f8fafc"/>
    <rect x="471" y="146" width="72" height="8" fill="#5eead4"/>
    <rect x="555" y="146" width="32" height="8" fill="#bef264"/>
    <text x="62" y="178" fill="#94a3b8" font-family="Monaco, 'Courier New', monospace" font-size="18" font-weight="700" letter-spacing="4">OBSIDIAN CODEX SIDEBAR</text>
  </g>
</svg>
